<mxfile host="65bd71144e">
    <diagram id="fDlTkcSAq6EhD93O3-o5" name="Page-1">
        <mxGraphModel dx="1031" dy="1211" grid="1" gridSize="10" guides="1" tooltips="1" connect="1" arrows="1" fold="1" page="1" pageScale="1" pageWidth="1654" pageHeight="1169" math="0" shadow="0">
            <root>
                <mxCell id="0"/>
                <mxCell id="1" parent="0"/>
                <mxCell id="114" value="" style="group" parent="1" vertex="1" connectable="0">
                    <mxGeometry x="330" y="710" width="884.6199999999999" height="200" as="geometry"/>
                </mxCell>
                <mxCell id="68" value="" style="rounded=0;whiteSpace=wrap;html=1;fillColor=none;align=left;" parent="114" vertex="1">
                    <mxGeometry width="884.62" height="200" as="geometry"/>
                </mxCell>
                <mxCell id="69" value="Infrastructure" style="text;strokeColor=none;fillColor=none;html=1;fontSize=24;fontStyle=1;verticalAlign=middle;align=center;fontFamily=Helvetica;fontColor=default;container=1;" parent="114" vertex="1">
                    <mxGeometry width="180.00000000000003" height="42.53968253968254" as="geometry"/>
                </mxCell>
                <mxCell id="19" value="Data Lake" style="shape=cylinder3;whiteSpace=wrap;html=1;boundedLbl=1;backgroundOutline=1;size=15;fontFamily=Helvetica;fontSize=12;fontColor=default;strokeColor=default;fillColor=default;" parent="114" vertex="1">
                    <mxGeometry x="127.30461538461537" y="42.539999999999964" width="115.38461538461539" height="130" as="geometry"/>
                </mxCell>
                <mxCell id="18" value="Meta DB" style="shape=cylinder3;whiteSpace=wrap;html=1;boundedLbl=1;backgroundOutline=1;size=15;fontFamily=Helvetica;fontSize=12;fontColor=default;strokeColor=default;fillColor=default;" parent="114" vertex="1">
                    <mxGeometry x="360" y="51.26999999999998" width="80" height="97.46" as="geometry"/>
                </mxCell>
                <mxCell id="127" value="Stage 2" style="shape=corner;whiteSpace=wrap;html=1;fillColor=#dae8fc;opacity=50;dx=100;dy=120;strokeColor=#6c8ebf;align=left;verticalAlign=top;" parent="1" vertex="1">
                    <mxGeometry x="680" y="290" width="760" height="580" as="geometry"/>
                </mxCell>
                <mxCell id="113" value="" style="group;fillColor=none;align=left;" parent="1" vertex="1" connectable="0">
                    <mxGeometry x="330" y="200" width="884.6199999999999" height="500" as="geometry"/>
                </mxCell>
                <mxCell id="7" value="" style="rounded=0;whiteSpace=wrap;html=1;fillColor=none;align=left;" parent="113" vertex="1">
                    <mxGeometry width="884.62" height="500" as="geometry"/>
                </mxCell>
                <mxCell id="11" value="K8S Cluster" style="text;strokeColor=none;fillColor=none;html=1;fontSize=24;fontStyle=1;verticalAlign=middle;align=center;fontFamily=Helvetica;fontColor=default;container=1;" parent="113" vertex="1">
                    <mxGeometry width="180.00000000000003" height="42.53968253968254" as="geometry"/>
                </mxCell>
                <mxCell id="94" value="Scheduler" style="rounded=1;whiteSpace=wrap;html=1;" parent="113" vertex="1">
                    <mxGeometry x="370" y="130" width="120" height="60" as="geometry"/>
                </mxCell>
                <mxCell id="124" value="Stage 1" style="rounded=0;whiteSpace=wrap;html=1;fillColor=#f8cecc;strokeColor=#b85450;opacity=50;align=left;verticalAlign=top;" parent="113" vertex="1">
                    <mxGeometry x="470" y="320" width="400" height="170" as="geometry"/>
                </mxCell>
                <mxCell id="38" style="html=1;fontFamily=Helvetica;fontSize=12;fontColor=default;endArrow=classic;endFill=1;entryX=0;entryY=0.5;entryDx=0;entryDy=0;" parent="1" source="35" target="90" edge="1">
                    <mxGeometry relative="1" as="geometry">
                        <mxPoint x="397" y="330" as="targetPoint"/>
                    </mxGeometry>
                </mxCell>
                <mxCell id="35" value="Sensor&amp;nbsp;" style="rounded=1;whiteSpace=wrap;html=1;" parent="1" vertex="1">
                    <mxGeometry x="90" y="310" width="120" height="60" as="geometry"/>
                </mxCell>
                <mxCell id="39" style="edgeStyle=none;html=1;fontFamily=Helvetica;fontSize=12;fontColor=default;endArrow=classic;endFill=1;entryX=0;entryY=0.5;entryDx=0;entryDy=0;" parent="1" source="36" target="90" edge="1">
                    <mxGeometry relative="1" as="geometry">
                        <mxPoint x="396.9230769230769" y="330" as="targetPoint"/>
                    </mxGeometry>
                </mxCell>
                <mxCell id="36" value="Sensor" style="rounded=1;whiteSpace=wrap;html=1;" parent="1" vertex="1">
                    <mxGeometry x="90" y="410" width="120" height="60" as="geometry"/>
                </mxCell>
                <mxCell id="40" style="edgeStyle=none;html=1;fontFamily=Helvetica;fontSize=12;fontColor=default;endArrow=classic;endFill=1;entryX=0;entryY=0.5;entryDx=0;entryDy=0;" parent="1" source="37" target="90" edge="1">
                    <mxGeometry relative="1" as="geometry">
                        <mxPoint x="396.9230769230769" y="330" as="targetPoint"/>
                    </mxGeometry>
                </mxCell>
                <mxCell id="37" value="Sensor" style="rounded=1;whiteSpace=wrap;html=1;" parent="1" vertex="1">
                    <mxGeometry x="90" y="510" width="120" height="60" as="geometry"/>
                </mxCell>
                <mxCell id="48" style="edgeStyle=none;html=1;fontFamily=Helvetica;fontSize=12;fontColor=default;endArrow=classic;endFill=1;exitX=0.875;exitY=0.5;exitDx=0;exitDy=0;exitPerimeter=0;" parent="1" source="41" edge="1">
                    <mxGeometry relative="1" as="geometry">
                        <mxPoint x="1510" y="250" as="targetPoint"/>
                    </mxGeometry>
                </mxCell>
                <mxCell id="49" style="edgeStyle=none;html=1;fontFamily=Helvetica;fontSize=12;fontColor=default;endArrow=classic;endFill=1;exitX=0.875;exitY=0.5;exitDx=0;exitDy=0;exitPerimeter=0;" parent="1" source="41" target="45" edge="1">
                    <mxGeometry relative="1" as="geometry"/>
                </mxCell>
                <mxCell id="50" style="edgeStyle=none;html=1;exitX=0.875;exitY=0.5;exitDx=0;exitDy=0;exitPerimeter=0;fontFamily=Helvetica;fontSize=12;fontColor=default;endArrow=classic;endFill=1;" parent="1" source="41" target="47" edge="1">
                    <mxGeometry relative="1" as="geometry"/>
                </mxCell>
                <mxCell id="41" value="Smart Contract" style="ellipse;shape=cloud;whiteSpace=wrap;html=1;fontFamily=Helvetica;fontSize=12;fontColor=default;strokeColor=default;fillColor=default;" parent="1" vertex="1">
                    <mxGeometry x="1270" y="290" width="170" height="120" as="geometry"/>
                </mxCell>
                <mxCell id="43" style="edgeStyle=none;html=1;exitX=1;exitY=0.5;exitDx=0;exitDy=0;fontFamily=Helvetica;fontSize=12;fontColor=default;endArrow=classic;endFill=1;entryX=0.16;entryY=0.55;entryDx=0;entryDy=0;entryPerimeter=0;" parent="1" source="94" target="41" edge="1">
                    <mxGeometry relative="1" as="geometry">
                        <mxPoint x="1310" y="360" as="targetPoint"/>
                        <mxPoint x="1045.382307692308" y="450" as="sourcePoint"/>
                    </mxGeometry>
                </mxCell>
                <mxCell id="44" value="Actor" style="shape=umlActor;verticalLabelPosition=bottom;verticalAlign=top;html=1;outlineConnect=0;fontFamily=Helvetica;fontSize=12;fontColor=default;strokeColor=default;fillColor=default;" parent="1" vertex="1">
                    <mxGeometry x="1510" y="170" width="30" height="60" as="geometry"/>
                </mxCell>
                <mxCell id="45" value="Actor" style="shape=umlActor;verticalLabelPosition=bottom;verticalAlign=top;html=1;outlineConnect=0;fontFamily=Helvetica;fontSize=12;fontColor=default;strokeColor=default;fillColor=default;" parent="1" vertex="1">
                    <mxGeometry x="1570" y="280" width="30" height="60" as="geometry"/>
                </mxCell>
                <mxCell id="47" value="Actor" style="shape=umlActor;verticalLabelPosition=bottom;verticalAlign=top;html=1;outlineConnect=0;fontFamily=Helvetica;fontSize=12;fontColor=default;strokeColor=default;fillColor=default;" parent="1" vertex="1">
                    <mxGeometry x="1500" y="420" width="30" height="60" as="geometry"/>
                </mxCell>
                <mxCell id="117" style="edgeStyle=orthogonalEdgeStyle;html=1;exitX=0.855;exitY=0;exitDx=0;exitDy=4.35;exitPerimeter=0;entryX=0.5;entryY=1;entryDx=0;entryDy=0;strokeColor=default;" parent="1" source="18" target="94" edge="1">
                    <mxGeometry relative="1" as="geometry"/>
                </mxCell>
                <mxCell id="91" value="" style="group" parent="1" vertex="1" connectable="0">
                    <mxGeometry x="430" y="255" width="170" height="370" as="geometry"/>
                </mxCell>
                <mxCell id="6" value="" style="group" parent="91" vertex="1" connectable="0">
                    <mxGeometry x="40.000769230769265" y="20" width="115.38461538461539" height="330" as="geometry"/>
                </mxCell>
                <mxCell id="2" value="Ingest 1" style="rounded=1;whiteSpace=wrap;html=1;" parent="6" vertex="1">
                    <mxGeometry width="115.38461538461539" height="60" as="geometry"/>
                </mxCell>
                <mxCell id="3" value="Ingest 2" style="rounded=1;whiteSpace=wrap;html=1;" parent="6" vertex="1">
                    <mxGeometry y="100" width="115.38461538461539" height="60" as="geometry"/>
                </mxCell>
                <mxCell id="4" value="Ingest N" style="rounded=1;whiteSpace=wrap;html=1;" parent="6" vertex="1">
                    <mxGeometry y="270" width="115.38461538461539" height="60" as="geometry"/>
                </mxCell>
                <mxCell id="5" value="..." style="text;html=1;strokeColor=none;fillColor=none;align=center;verticalAlign=middle;whiteSpace=wrap;rounded=0;" parent="6" vertex="1">
                    <mxGeometry x="28.846153846153847" y="200" width="57.69230769230769" height="30" as="geometry"/>
                </mxCell>
                <mxCell id="90" value="Ingest Pod" style="swimlane;horizontal=0;container=0;" parent="91" vertex="1">
                    <mxGeometry width="170" height="370" as="geometry"/>
                </mxCell>
                <mxCell id="118" style="edgeStyle=orthogonalEdgeStyle;html=1;exitX=0.25;exitY=1;exitDx=0;exitDy=0;entryX=0.5;entryY=0;entryDx=0;entryDy=0;entryPerimeter=0;strokeColor=default;" parent="1" source="94" target="18" edge="1">
                    <mxGeometry relative="1" as="geometry"/>
                </mxCell>
                <mxCell id="119" style="edgeStyle=orthogonalEdgeStyle;html=1;exitX=0.75;exitY=1;exitDx=0;exitDy=0;entryX=0.25;entryY=0;entryDx=0;entryDy=0;strokeColor=default;" parent="1" source="94" target="99" edge="1">
                    <mxGeometry relative="1" as="geometry"/>
                </mxCell>
                <mxCell id="123" style="edgeStyle=orthogonalEdgeStyle;html=1;exitX=0;exitY=0.25;exitDx=0;exitDy=0;entryX=1;entryY=0.25;entryDx=0;entryDy=0;strokeColor=default;" parent="1" source="94" target="90" edge="1">
                    <mxGeometry relative="1" as="geometry"/>
                </mxCell>
                <mxCell id="120" style="edgeStyle=orthogonalEdgeStyle;html=1;exitX=0.5;exitY=0;exitDx=0;exitDy=0;entryX=1;entryY=1;entryDx=0;entryDy=0;strokeColor=default;" parent="1" source="99" target="94" edge="1">
                    <mxGeometry relative="1" as="geometry">
                        <Array as="points">
                            <mxPoint x="1005" y="460"/>
                            <mxPoint x="820" y="460"/>
                        </Array>
                    </mxGeometry>
                </mxCell>
                <mxCell id="99" value="Proving Pod" style="swimlane;" parent="1" vertex="1">
                    <mxGeometry x="820" y="560" width="370" height="110" as="geometry"/>
                </mxCell>
                <mxCell id="100" value="Zkt Prover 1" style="rounded=1;whiteSpace=wrap;html=1;" parent="99" vertex="1">
                    <mxGeometry x="10" y="35" width="120" height="60" as="geometry"/>
                </mxCell>
                <mxCell id="102" value="Zkt Prover M" style="rounded=1;whiteSpace=wrap;html=1;" parent="99" vertex="1">
                    <mxGeometry x="240" y="35" width="120" height="60" as="geometry"/>
                </mxCell>
                <mxCell id="110" value="..." style="text;html=1;strokeColor=none;fillColor=none;align=center;verticalAlign=middle;whiteSpace=wrap;rounded=0;" parent="99" vertex="1">
                    <mxGeometry x="156.15692307692316" y="50" width="57.69230769230769" height="30" as="geometry"/>
                </mxCell>
                <mxCell id="101" style="edgeStyle=orthogonalEdgeStyle;html=1;exitX=1;exitY=0.5;exitDx=0;exitDy=0;entryX=0;entryY=0.75;entryDx=0;entryDy=0;" parent="1" source="90" target="94" edge="1">
                    <mxGeometry relative="1" as="geometry"/>
                </mxCell>
                <mxCell id="115" style="edgeStyle=orthogonalEdgeStyle;html=1;exitX=0.5;exitY=1;exitDx=0;exitDy=0;entryX=0.5;entryY=0;entryDx=0;entryDy=0;entryPerimeter=0;strokeColor=default;" parent="1" source="90" target="19" edge="1">
                    <mxGeometry relative="1" as="geometry"/>
                </mxCell>
                <mxCell id="116" style="edgeStyle=orthogonalEdgeStyle;html=1;exitX=0.855;exitY=0;exitDx=0;exitDy=4.35;exitPerimeter=0;entryX=0.75;entryY=1;entryDx=0;entryDy=0;strokeColor=default;" parent="1" source="19" target="90" edge="1">
                    <mxGeometry relative="1" as="geometry"/>
                </mxCell>
                <mxCell id="122" style="edgeStyle=orthogonalEdgeStyle;html=1;entryX=0.5;entryY=0;entryDx=0;entryDy=0;strokeColor=default;" parent="1" source="121" target="94" edge="1">
                    <mxGeometry relative="1" as="geometry"/>
                </mxCell>
                <mxCell id="121" value="Admin" style="shape=umlActor;verticalLabelPosition=bottom;verticalAlign=top;html=1;outlineConnect=0;fontFamily=Helvetica;fontSize=12;fontColor=default;strokeColor=default;fillColor=default;" parent="1" vertex="1">
                    <mxGeometry x="745" y="80" width="30" height="60" as="geometry"/>
                </mxCell>
                <mxCell id="128" value="Stage 3" style="rounded=0;whiteSpace=wrap;html=1;fillColor=#d5e8d4;strokeColor=#82b366;opacity=50;align=right;verticalAlign=top;" parent="1" vertex="1">
                    <mxGeometry x="410" y="230" width="210" height="670" as="geometry"/>
                </mxCell>
                <mxCell id="129" value="Stage 4" style="rounded=0;whiteSpace=wrap;html=1;fillColor=#d0cee2;strokeColor=#56517e;opacity=50;align=right;verticalAlign=top;" vertex="1" parent="1">
                    <mxGeometry x="60" y="230" width="310" height="420" as="geometry"/>
                </mxCell>
            </root>
        </mxGraphModel>
    </diagram>
</mxfile>